<?xml version="1.0" encoding="UTF-8"?>
<svg xmlns="http://www.w3.org/2000/svg" version="1.1" viewBox="0 0 795.5 268.6">
  <defs>
    <style>
      .cls-1 {
        fill: #fff;
      }

      .cls-2 {
        fill: #b5a190;
      }
    </style>
  </defs>
  <!-- Generator: Adobe Illustrator 28.6.0, SVG Export Plug-In . SVG Version: 1.2.0 Build 709)  -->
  <g>
    <g id="Layer_1">
      <g>
        <path class="cls-1" d="M79.8,99.6c5.5-8.8,10.7-17.1,15.9-25.5,14.4-23.1,28.8-46.2,43.3-69.3.7-1.2,2.6-2.2,3.9-2.3,5.4-.3,10.7-.1,16.4-.1v175.9h-17.4V35.2c-.3-.1-.6-.2-1-.4-20.3,32.6-40.7,65.2-61.3,98.3-20.7-33.1-41.1-65.8-61.4-98.5-.2,0-.4,0-.7.1v143.6H0V2.4c6.1,0,11.9-.1,17.8.1,1.1,0,2.3,1.5,3,2.6,12.8,20.4,25.5,40.8,38.2,61.2,6.1,9.7,12.1,19.5,18.2,29.2.8,1.2,1.6,2.4,2.6,4h0Z"/>
        <path class="cls-1" d="M703.8,182.6c-50.6-.4-91.7-41.9-91-91.9C613.5,39.8,654.5-.3,705.3,0c49.6.3,91.3,42,90.2,93.6-1,48.7-42.4,89.4-91.7,88.9h0ZM630.7,90.9c-.1,40.8,32.5,73.7,73.3,74.1,40.3.4,73.7-33,73.8-73.7.1-39.9-32.7-73.4-72.3-73.6-41.6-.2-74.7,32.2-74.8,73.1h0Z"/>
        <path class="cls-1" d="M457,178.4h-17.5V2.6h17.3v105.4c1.3-1.1,2-1.6,2.7-2.3,33.1-33.1,66.2-66.1,99.2-99.3,2.9-2.9,5.6-4.4,9.8-4.1,6.1.4,12.2.1,18.4.1-25.9,25.9-51.7,51.6-77.7,77.5,26.4,33.2,52.1,65.6,78.5,98.8-3.5,0-6.4-.4-9.2,0-10,1.8-16.1-2.6-22-10.5-18.5-24.4-37.9-48.2-57-72.2-.7-.9-1.5-1.6-2.5-2.8-1.7,1.6-3.4,3.2-5,4.8-11.1,11.1-22.2,22.1-33.1,33.3-1.2,1.2-2.1,3.3-2.1,5-.2,12.5,0,24.9,0,37.4v4.7h0Z"/>
        <path class="cls-1" d="M388.8,178.6c-6.3,0-12.1.1-17.8-.1-.9,0-2.2-1.4-2.6-2.4-14.6-32.2-29.2-64.5-43.8-96.8-7.8-17.4-15.7-34.7-23.5-52-.4-.9-.9-1.7-1.6-3.1-3.3,7.4-6.5,14.2-9.6,21-19.7,43.6-39.4,87.2-59.2,130.7-.5,1-1.6,2.5-2.5,2.5-5.7.2-11.5.1-17.8.1,2.4-5.3,4.5-10.2,6.7-15,17.3-38.4,34.7-76.8,52-115.1,6.5-14.5,13.1-28.9,19.5-43.4,1-2.2,2.2-2.8,4.4-2.7,4.4.2,8.8.2,13.2,0,2.3,0,3.4.6,4.4,2.8,19.2,42.6,38.4,85.2,57.6,127.8,6.4,14.2,12.9,28.5,19.3,42.7.3.8.7,1.5,1.3,3h0Z"/>
      </g>
      <g>
        <path class="cls-2" d="M229,267.9v-63.3h-25.5v-6.3h57.8v6.3h-25.6v63.3h-6.7Z"/>
        <path class="cls-2" d="M346.2,204.6h-56.7v-6.3h56.7v6.3ZM346.2,267.9h-56.7v-42.7h6.9v4.8h40.3v6.2h-40.3v25.6h49.8v6.2h0Z"/>
        <path class="cls-2" d="M375.1,267.9v-32h6.9v4.7h22.3c11.2,0,20-8.7,20-18.2s-9.5-18-20-18h-29.2v-6.3h29.2c15,0,26.8,11.5,26.8,24.2s-13,24.5-26.8,24.5h-22.3v20.9h-6.9Z"/>
        <path class="cls-2" d="M459.7,267.9v-69.6h7v69.6h-7Z"/>
        <path class="cls-2" d="M560.8,206.6l-5.5,4.1c-5.6-4.3-12.9-6.8-20.7-6.8s-17.2,3.3-23.1,8.5c-5.9,5.3-9.5,12.7-9.5,20.8s3.6,15.5,9.5,20.7,14,8.6,23.1,8.6,15.2-2.6,20.7-6.9l5.5,4c-7,5.7-16.2,9-26.2,9s-20.9-3.8-28-10.3c-7.1-6.5-11.7-15.3-11.7-25.1s4.5-18.7,11.7-25.1c7-6.5,17-10.4,28-10.4s19.2,3.3,26.2,8.9h0Z"/>
      </g>
    </g>
  </g>
</svg>