<?xml version="1.0" encoding="UTF-8"?>
<svg id="Layer_1" data-name="Layer 1" xmlns="http://www.w3.org/2000/svg" viewBox="0 0 1080 1080">
  <defs>
    <style>
      .cls-1 {
        fill: #3b8641;
      }
    </style>
  </defs>
  <path class="cls-1" d="m426.91,572.79c0-27.72.06-55.44-.07-83.16-.02-3.35.68-4.47,4.29-4.45,40.88.14,81.77.12,122.65.02,3.09,0,4.31.55,4.2,3.97-.26,8.04-.24,16.11,0,24.15.1,3.27-.88,4.12-4.12,4.1-29.73-.12-59.47,0-89.2-.17-4.01-.02-5.28.83-5.14,5.04.35,10.36.26,20.75.03,31.12-.08,3.4.71,4.39,4.28,4.37,28.65-.17,57.3-.01,85.95-.19,3.87-.02,5,.96,4.81,4.85-.34,7.11-.27,14.25-.02,21.36.13,3.55-.75,4.71-4.55,4.69-28.34-.17-56.68.03-85.02-.22-4.69-.04-5.61,1.4-5.47,5.71.32,9.9.24,19.82.03,29.73-.07,3.41.83,4.44,4.37,4.42,29.73-.15,59.47-.01,89.2-.17,3.72-.02,5.06.63,4.88,4.68-.37,8.04-.18,16.1-.06,24.15.04,2.56-.27,3.84-3.43,3.83-41.35-.11-82.7-.12-124.04,0-3.49.01-3.59-1.58-3.59-4.21.06-27.88.04-55.75.04-83.63Z"/>
  <path class="cls-1" d="m1027.92,541.38c0,16.1.19,32.2-.06,48.3-.24,15.39-3.53,30.1-11.92,43.25-10.11,15.84-24.8,25.06-43.01,28.96-19.94,4.28-39.4,3.01-58-5.67-23.44-10.94-35.59-30.14-39.43-55.2-.9-5.84-1.09-11.69-1.08-17.58.03-30.96.1-61.92-.09-92.88-.02-3.96,1.05-4.89,4.85-4.73,7.73.31,15.49.31,23.21,0,3.79-.15,4.87.76,4.85,4.72-.18,31.89-.12,63.78-.08,95.67.01,7.14.87,14.16,3.39,20.94,6.03,16.2,17.98,24.65,34.77,26.56,7.87.9,15.82.75,23.39-2.05,15.6-5.75,22.94-17.96,25.65-33.58.79-4.58.95-9.22.94-13.88-.04-31.27.05-62.54-.11-93.81-.02-3.63.88-4.7,4.54-4.56,7.88.29,15.79.26,23.68.01,3.49-.11,4.69.66,4.63,4.46-.23,17.03-.1,34.06-.1,51.08h-.04Z"/>
  <path class="cls-1" d="m624.93,485.28c11.59,0,23.15.04,34.72-.04,1.96-.01,2.22,1.34,2.7,2.58,14,36.15,27.98,72.3,41.97,108.45,3.12,8.05,6.24,16.1,9.77,25.21,3.17-7.94,6.01-14.93,8.74-21.96,14.32-36.85,28.63-73.71,42.85-110.6,1.04-2.69,2.32-3.78,5.33-3.72,10.82.2,21.65.08,33.11.08-4.09,9.95-8,19.48-11.94,29-17.73,42.81-35.46,85.61-53.19,128.42-2.19,5.28-4.45,10.53-6.49,15.86-.73,1.91-1.72,2.57-3.74,2.55-9.6-.1-19.21-.15-28.8.03-2.64.05-3.39-1.33-4.21-3.31-10.9-26.41-21.85-52.8-32.78-79.2-12.28-29.68-24.54-59.38-36.83-89.06-.53-1.27-1.3-2.44-1.2-4.29Z"/>
  <path class="cls-1" d="m1008.61,739.92c-16.16,13.44-33.37,11.81-50.15,3.53-21.65-10.68-22.11-41.5-1.41-55.18,16.26-10.74,42.7-10.04,58.34,1.64,8.03,6,12.59,13.99,12.71,24.11.16,13.62.16,27.24.01,40.86-.12,10.88-5.1,19.2-14.14,25.16-15.78,10.41-44.2,10.26-59.66-.33-6.76-4.63-10.68-10.97-11.71-19.15-.33-2.65.35-3.69,3.11-3.48,2.62.2,5.26.01,7.89.05,4.21.06,9.09-1.43,10.14,5.22.21,1.36,2.09,2.63,3.45,3.62,8.73,6.36,25.94,6.36,34.77.05,3.82-2.73,6.44-6.33,6.62-11.16.18-4.87.04-9.75.04-14.92Zm-23.88-7.57c7.01,0,11.91-1.17,16.45-3.95,10.04-6.14,10.31-20.12.17-26.08-9.89-5.81-20.42-5.63-30.73-1.09-5.79,2.55-9.13,7.22-9.07,13.89.07,6.75,3.37,11.35,9.24,14.36,4.39,2.25,9.09,2.87,13.93,2.87Z"/>
  <path class="cls-1" d="m773.01,682.89c11.15,0,22.29.07,33.44-.05,2.81-.03,4.23.41,3.97,3.72-.37,4.61,1.51,10.68-.79,13.5-2.4,2.94-8.7.84-13.29.89-12.54.13-25.08.14-37.62-.03-3.08-.04-4.5.54-4.23,3.97.36,4.6-1.44,10.66.87,13.45,2.43,2.93,8.7.89,13.28.89,8.07,0,16.05.25,23.9,2.5,13.78,3.95,22.43,13.7,23.43,26.72,1.21,15.81-5.48,28.29-18.8,34.11-16.07,7.04-32.33,6.38-48.13-.65-10.18-4.53-15.18-13.18-15.96-24.29-.15-2.17.37-3.13,2.73-2.95,2.46.18,4.95.02,7.43.04,4.67.04,9.99-1.55,10.85,6.02.28,2.48,3.13,4.19,5.57,5.25,9.19,4,18.53,4.68,27.87.53,6.15-2.74,9.29-8.04,9.11-14.8-.17-6.52-4.11-9.95-9.68-12.22-4.28-1.74-8.75-1.84-13.23-1.86-11.46-.05-22.91-.14-34.37.05-3.26.05-4.18-.91-4.14-4.16.16-15.63.17-31.27,0-46.9-.04-3.16.99-3.84,3.91-3.8,11.3.15,22.6.06,33.9.06Z"/>
  <path class="cls-1" d="m886.62,726.17c0,13.15.08,26.31-.06,39.46-.03,2.95.66,4.15,3.82,3.95,3.36-.21,7.85-1.12,9.87.59,2.43,2.07.39,6.73.9,10.21.68,4.65-.91,6.01-5.71,5.87-13.3-.37-26.62-.22-39.92-.06-3,.03-4.21-.72-3.97-3.85.24-3.23.17-6.5,0-9.74-.13-2.5.9-3.24,3.25-3.12,3.09.15,6.2-.11,9.28.08,2.49.15,3.14-.81,3.13-3.19-.07-21.05-.08-42.09,0-63.14.01-2.53-.94-3.18-3.26-3.09-3.4.14-6.81-.06-10.21.06-2,.07-2.72-.61-2.66-2.65.13-4.02.12-8.05,0-12.07-.06-2.1.48-3.05,2.82-3.02,9.9.1,19.81.14,29.71-.02,3.09-.05,3.03,1.61,3.03,3.8-.05,13.31-.02,26.62-.02,39.93Z"/>
  <path class="cls-1" d="m403.32,404.33c-2.63-18.61-9.51-35.43-21.14-50.26-5.23-7.9-11.73-14.57-19.37-20.14-5.76-5.32-12.33-9.39-19.51-12.52-15.28-8.34-31.79-11.83-49.02-11.95-25.23-.17-50.46-.04-75.69-.04-57.58,0-115.16.05-172.74-.04-3.52,0-5.1.69-4.62,4.55.8,6.44.92,12.97,1.94,19.37,1.55,9.78,3.82,19.41,9.7,27.71.02-.21.05-.42.08-.63-.03.21-.06.42-.08.63.84,1.46,1.55,3.02,2.55,4.37,11.21,15.17,27.22,21.62,45.06,24.74,10.96,2.03,22.04,2.98,33.17,3.33,22.71.71,45.42.6,68.14.17h0c2.16.07,4.31.2,6.47.21,30.42.09,60.84.17,91.26.25,3.36,1.51,6.71,3.03,10.07,4.54.56-.26,1.12-.52,1.68-.79-.9-.89-2.1-1.27-3.29-1.65,1.2.38,2.39.76,3.29,1.65-.56.26-1.12.52-1.68.79,11,10.24,14.25,21.85,9.04,33.93-4.82,11.16-14,16.25-25.72,17.37-24.5.02-49.01.04-73.51.06-9.6,0-19.2.01-28.8.02-35.83-.04-71.66-.11-107.49-.1-13.73,0-27.46.21-41.19.32.04.2.11.4.19.59-.02,1.85-.04,3.69-.05,5.54,5.62,2.68,11.44,4.69,17.36,6.38-5.92-1.69-11.74-3.7-17.36-6.38.02-1.85.04-3.69.06-5.54-.09-.19-.15-.38-.19-.59-.25.52-.71,1.04-.71,1.57.05,20.41.14,40.83.22,61.24-.08,1.53-.23,3.07-.23,4.6.03,25.28.07,50.57.13,75.85,0,1.68.24,3.36.37,5.04h0c-1.19,20.41-.18,40.83-.53,61.25-.04,2.13.99,2.6,2.84,2.6,26.31-.03,52.63-.05,78.94.02,2.37,0,2.85-.95,2.8-3.03-.16-6.64-.18-13.29-.26-19.94,0-9.92,0-19.84-.01-29.76l.05-26.28c-.09-1.15-.19-2.31-.28-3.46,0,0,0,0,0,0,.09,1.15.18,2.31.28,3.46.05-16.28.1-32.56.15-48.85.76-.13,1.51-.38,2.27-.38,21,.02,42.03-.59,63,.27,21.63.89,37.96,11.7,48.83,30.38,4.64,7.98,8.66,16.31,12.97,24.48,3.04,7.03,6.63,13.77,10.48,20.38,3.51,7.99,7.63,15.67,11.92,23.25,4.61,9.09,9.24,18.16,13.81,27.27.7,1.4,1.62,2.12,3.23,2.09,14.84-.27,29.68.53,44.51-.43,13.1,1.09,26.22.23,39.33.44,2.56.04,5.21.47,7.81-.5-.12-.56-.12-1.04-.31-1.42-6.22-12.24-12.47-24.46-18.71-36.69-.49-.95-.9-2.01-2.21-2.1-.06-.91.15-1.96-.23-2.71-6.05-11.87-12.18-23.7-18.29-35.54-5.55-11.08-10.46-22.48-16.7-33.21-.1-.29-.21-.57-.31-.86-.23-.38-.46-.77-.7-1.15-1-2.04-1.96-4.1-3-6.12-1.88-3.64-4.32-7.01-5.34-11.06,6.8-.91,13.18-3.29,19.37-6.05,26.45-11.79,45.67-30.88,57.48-57.36,5.53-10.77,7.72-22.43,9.21-34.29,1.95-9.69-.6-19.27-.75-28.91ZM42.03,636.81c.11-6.26.01-12.52.04-18.78,0,0,0,0,0,0-.03,6.26.06,12.52-.05,18.78Zm16.59-20.06c-2.09.2-4.19.37-6.29.52,2.1-.16,4.2-.32,6.29-.52Zm152.84-115.11c.28.29.45.67.51,1.19,4.24-.01,7.96,2.24,12.07,2.78.12-.24.23-.56.35-.84-.12.27-.22.6-.35.84-4.11-.53-7.83-2.79-12.07-2.78-.06-.52-.23-.89-.51-1.19Zm23.11,4.91c-1.33-.18-2.77,0-4.03.95h0c1.26-.95,2.7-1.13,4.03-.95Zm20.13,19.53c-1.17-1.52-2.41-2.96-3.74-4.32,1.32,1.35,2.56,2.8,3.74,4.32h0Zm72.5-167.28c3.72,1.54,7.45,3.09,11.17,4.63,5.25,2.79,10.51,5.58,15.76,8.37h0c-5.25-2.79-10.51-5.58-15.76-8.37-3.72-1.54-7.45-3.09-11.17-4.63Zm52.93,63.73c.06.43.1.86.11,1.29-.01-.43-.06-.86-.11-1.29-.32-2.35-1.16-4.67-.85-7.07h0c-.31,2.4.53,4.72.85,7.07Zm-2.94,3.75c.87-.4,1.82-.61,2.9-.51.07,6.34-.59,12.6-1.61,18.82,1.02-6.22,1.67-12.48,1.61-18.82-1.08-.11-2.02.11-2.9.51Zm-42.2-16.61c.72-1.65,2.23-2.51,3.7-3.36-1.48.85-2.99,1.71-3.7,3.36Zm29.12-28.21c1.01,1.23,1.93,2.49,2.14,4.18,3.03,1.63,4.27,4.49,5.5,7.33-1.23-2.84-2.47-5.7-5.5-7.32-.22-1.7-1.13-2.95-2.14-4.19Zm-29.45,29.3s0,0,0,0c-1.36-1.23-2.75-2.43-4.09-3.68,1.34,1.25,2.73,2.46,4.09,3.68Zm41.65,16c-.54.34-1.07.72-1.59,1.14.52-.42,1.05-.81,1.59-1.14Zm8.76-12.83c.43-.26.85-.54,1.26-.83-.41.29-.83.57-1.26.83Zm-183.34-21.01c0-.47.06-.89.19-1.28-.13.39-.19.81-.19,1.28Zm48.34-38.83c-.72-.83-1.62-.88-2.55-.86.92-.02,1.83.04,2.55.86,15.47.44,30.98-.76,46.42.91.04-1.14,0-2.2.66-3.13.22-.31.51-.6.91-.88-.4.28-.69.57-.91.88-.66.93-.62,1.99-.66,3.13-15.45-1.67-30.95-.47-46.42-.91Zm49.38,39.99s0,0,.01,0h-.01s0,0,0,0Zm3.01-.83h0c-.46.27-.92.53-1.38.8.46-.27.92-.53,1.38-.8Zm3.02,1.98c.75.44,1.59.71,2.44.97-.85-.27-1.69-.53-2.44-.97Zm-230.97,71.37c-4.37-1.03-8.73-2.08-13.05-3.26,4.32,1.18,8.69,2.23,13.05,3.26Zm-31.82,131.94c2.74-16.96,9.94-30.9,21.75-41.64-11.81,10.74-19.02,24.68-21.75,41.64-.33,0-.66.01-.99.02.33,0,.66-.01.98-.02Zm75.48-16.6c.72-.06,1.44-.17,2.15-.31-.71.14-1.43.25-2.15.31Zm190.49,30.55h0c4.29,7.45,8.58,14.91,12.87,22.36-4.29-7.45-8.58-14.91-12.87-22.36Zm-.73-104.24c4.77,1.32,9.56,2.66,14.56,2.98-.55,3.71-1.18,7.4-2.06,11.03.89-3.64,1.51-7.33,2.06-11.03-4.99-.32-9.78-1.65-14.55-2.98Zm10.91,19.23c.03-.14.08-.3.14-.45-.06.16-.11.31-.14.45-.06.28-.03.52.17.65-.2-.13-.22-.36-.17-.65Z"/>
</svg>