<?xml version="1.0" encoding="UTF-8"?>
<svg id="Layer_1" data-name="Layer 1" xmlns="http://www.w3.org/2000/svg" version="1.1" viewBox="0 0 1080 1080">
  <defs>
    <style>
      .cls-1 {
        fill: #fff;
        stroke-width: 0px;
      }
    </style>
  </defs>
  <path class="cls-1" d="M426.9,572.8c0-27.7,0-55.4,0-83.2,0-3.4.7-4.5,4.3-4.5,40.9.1,81.8.1,122.7,0,3.1,0,4.3.5,4.2,4-.3,8-.2,16.1,0,24.1,0,3.3-.9,4.1-4.1,4.1-29.7-.1-59.5,0-89.2-.2-4,0-5.3.8-5.1,5,.4,10.4.3,20.8,0,31.1,0,3.4.7,4.4,4.3,4.4,28.6-.2,57.3,0,86-.2,3.9,0,5,1,4.8,4.8-.3,7.1-.3,14.2,0,21.4.1,3.5-.8,4.7-4.5,4.7-28.3-.2-56.7,0-85-.2-4.7,0-5.6,1.4-5.5,5.7.3,9.9.2,19.8,0,29.7,0,3.4.8,4.4,4.4,4.4,29.7-.2,59.5,0,89.2-.2,3.7,0,5.1.6,4.9,4.7-.4,8-.2,16.1,0,24.2,0,2.6-.3,3.8-3.4,3.8-41.3-.1-82.7-.1-124,0-3.5,0-3.6-1.6-3.6-4.2,0-27.9,0-55.8,0-83.6h0Z"/>
  <path class="cls-1" d="M1027.9,541.4c0,16.1.2,32.2,0,48.3-.2,15.4-3.5,30.1-11.9,43.2-10.1,15.8-24.8,25.1-43,29-19.9,4.3-39.4,3-58-5.7-23.4-10.9-35.6-30.1-39.4-55.2-.9-5.8-1.1-11.7-1.1-17.6,0-31,0-61.9,0-92.9,0-4,1-4.9,4.8-4.7,7.7.3,15.5.3,23.2,0,3.8-.1,4.9.8,4.8,4.7-.2,31.9-.1,63.8,0,95.7,0,7.1.9,14.2,3.4,20.9,6,16.2,18,24.7,34.8,26.6,7.9.9,15.8.8,23.4-2,15.6-5.8,22.9-18,25.7-33.6.8-4.6,1-9.2.9-13.9,0-31.3,0-62.5-.1-93.8,0-3.6.9-4.7,4.5-4.6,7.9.3,15.8.3,23.7,0,3.5-.1,4.7.7,4.6,4.5-.2,17,0,34.1,0,51.1h0,0Z"/>
  <path class="cls-1" d="M624.9,485.3c11.6,0,23.2,0,34.7,0,2,0,2.2,1.3,2.7,2.6,14,36.1,28,72.3,42,108.4,3.1,8,6.2,16.1,9.8,25.2,3.2-7.9,6-14.9,8.7-22,14.3-36.8,28.6-73.7,42.8-110.6,1-2.7,2.3-3.8,5.3-3.7,10.8.2,21.7,0,33.1,0-4.1,10-8,19.5-11.9,29-17.7,42.8-35.5,85.6-53.2,128.4-2.2,5.3-4.5,10.5-6.5,15.9-.7,1.9-1.7,2.6-3.7,2.5-9.6,0-19.2-.2-28.8,0-2.6,0-3.4-1.3-4.2-3.3-10.9-26.4-21.8-52.8-32.8-79.2-12.3-29.7-24.5-59.4-36.8-89.1-.5-1.3-1.3-2.4-1.2-4.3h0Z"/>
  <path class="cls-1" d="M1008.6,739.9c-16.2,13.4-33.4,11.8-50.2,3.5-21.7-10.7-22.1-41.5-1.4-55.2,16.3-10.7,42.7-10,58.3,1.6,8,6,12.6,14,12.7,24.1.2,13.6.2,27.2,0,40.9-.1,10.9-5.1,19.2-14.1,25.2-15.8,10.4-44.2,10.3-59.7-.3-6.8-4.6-10.7-11-11.7-19.2-.3-2.7.3-3.7,3.1-3.5,2.6.2,5.3,0,7.9,0,4.2,0,9.1-1.4,10.1,5.2.2,1.4,2.1,2.6,3.5,3.6,8.7,6.4,25.9,6.4,34.8,0,3.8-2.7,6.4-6.3,6.6-11.2.2-4.9,0-9.8,0-14.9h0ZM984.7,732.3c7,0,11.9-1.2,16.5-4,10-6.1,10.3-20.1.2-26.1-9.9-5.8-20.4-5.6-30.7-1.1-5.8,2.5-9.1,7.2-9.1,13.9,0,6.8,3.4,11.3,9.2,14.4,4.4,2.2,9.1,2.9,13.9,2.9h0Z"/>
  <path class="cls-1" d="M773,682.9c11.2,0,22.3,0,33.4,0,2.8,0,4.2.4,4,3.7-.4,4.6,1.5,10.7-.8,13.5-2.4,2.9-8.7.8-13.3.9-12.5.1-25.1.1-37.6,0-3.1,0-4.5.5-4.2,4,.4,4.6-1.4,10.7.9,13.5,2.4,2.9,8.7.9,13.3.9,8.1,0,16,.2,23.9,2.5,13.8,4,22.4,13.7,23.4,26.7,1.2,15.8-5.5,28.3-18.8,34.1-16.1,7-32.3,6.4-48.1-.7-10.2-4.5-15.2-13.2-16-24.3-.2-2.2.4-3.1,2.7-3,2.5.2,5,0,7.4,0,4.7,0,10-1.5,10.8,6,.3,2.5,3.1,4.2,5.6,5.2,9.2,4,18.5,4.7,27.9.5,6.2-2.7,9.3-8,9.1-14.8-.2-6.5-4.1-10-9.7-12.2-4.3-1.7-8.8-1.8-13.2-1.9-11.5,0-22.9-.1-34.4,0-3.3,0-4.2-.9-4.1-4.2.2-15.6.2-31.3,0-46.9,0-3.2,1-3.8,3.9-3.8,11.3.2,22.6,0,33.9,0h0Z"/>
  <path class="cls-1" d="M886.6,726.2c0,13.2,0,26.3,0,39.5,0,3,.7,4.2,3.8,4,3.4-.2,7.8-1.1,9.9.6,2.4,2.1.4,6.7.9,10.2.7,4.7-.9,6-5.7,5.9-13.3-.4-26.6-.2-39.9,0-3,0-4.2-.7-4-3.8.2-3.2.2-6.5,0-9.7-.1-2.5.9-3.2,3.2-3.1,3.1.2,6.2-.1,9.3,0,2.5.2,3.1-.8,3.1-3.2,0-21,0-42.1,0-63.1,0-2.5-.9-3.2-3.3-3.1-3.4.1-6.8,0-10.2,0-2,0-2.7-.6-2.7-2.7.1-4,.1-8,0-12.1,0-2.1.5-3,2.8-3,9.9,0,19.8.1,29.7,0,3.1,0,3,1.6,3,3.8,0,13.3,0,26.6,0,39.9h0Z"/>
  <path class="cls-1" d="M403.3,404.3c-2.6-18.6-9.5-35.4-21.1-50.3-5.2-7.9-11.7-14.6-19.4-20.1-5.8-5.3-12.3-9.4-19.5-12.5-15.3-8.3-31.8-11.8-49-12-25.2-.2-50.5,0-75.7,0-57.6,0-115.2,0-172.7,0-3.5,0-5.1.7-4.6,4.5.8,6.4.9,13,1.9,19.4,1.5,9.8,3.8,19.4,9.7,27.7,0-.2,0-.4,0-.6,0,.2,0,.4,0,.6.8,1.5,1.5,3,2.5,4.4,11.2,15.2,27.2,21.6,45.1,24.7,11,2,22,3,33.2,3.3,22.7.7,45.4.6,68.1.2h0c2.2,0,4.3.2,6.5.2,30.4,0,60.8.2,91.3.2,3.4,1.5,6.7,3,10.1,4.5.6-.3,1.1-.5,1.7-.8-1.6-1.5-4-1.6-5.8-2.6,1.8,1.1,4.2,1.1,5.8,2.6-.6.3-1.1.5-1.7.8,11,10.2,14.2,21.9,9,33.9-4.8,11.2-14,16.2-25.7,17.4-24.5,0-49,0-73.5,0-9.6,0-19.2,0-28.8,0-35.8,0-71.7-.1-107.5-.1-13.7,0-27.5.2-41.2.3,0,.2.1.4.2.6,0,1.9,0,3.7,0,5.5,6,2.8,12.1,4.9,18.4,6.7-6.3-1.8-12.5-3.8-18.4-6.7,0-1.9,0-3.7,0-5.5,0-.2-.2-.4-.2-.6-.2.5-.7,1-.7,1.6,0,20.4.1,40.8.2,61.2,0,1.5-.2,3.1-.2,4.6,0,25.3,0,50.6.1,75.8,0,1.7.2,3.4.4,5h0c-1.2,20.4-.2,40.8-.5,61.2,0,2.1,1,2.6,2.8,2.6,26.3,0,52.6,0,78.9,0,2.4,0,2.8-1,2.8-3-.2-6.6-.2-13.3-.3-19.9,0-9.9,0-19.8,0-29.8,0-8.8,0-17.5,0-26.3,0-1.2-.2-2.3-.3-3.5h0c0,1.2.2,2.3.3,3.5,0-16.3,0-32.6.2-48.8.8-.1,1.5-.4,2.3-.4,21,0,42-.6,63,.3,21.6.9,38,11.7,48.8,30.4,4.6,8,8.7,16.3,13,24.5,3,7,6.6,13.8,10.5,20.4,3.5,8,7.6,15.7,11.9,23.2,4.6,9.1,9.2,18.2,13.8,27.3.7,1.4,1.6,2.1,3.2,2.1,14.8-.3,29.7.5,44.5-.4,13.1,1.1,26.2.2,39.3.4,2.6,0,5.2.5,7.8-.5-.1-.6-.1-1-.3-1.4-6.2-12.2-12.5-24.5-18.7-36.7-.5-1-.9-2-2.2-2.1,0-.9.1-2-.2-2.7-6-11.9-12.2-23.7-18.3-35.5-5.5-11.1-10.5-22.5-16.7-33.2l-.3-.9c-.2-.4-.5-.8-.7-1.2-1-2-2-4.1-3-6.1-1.9-3.6-4.3-7-5.3-11.1,6.8-.9,13.2-3.3,19.4-6,26.5-11.8,45.7-30.9,57.5-57.4,5.5-10.8,7.7-22.4,9.2-34.3,2-9.7-.6-19.3-.8-28.9h0ZM42,636.8c.1-6.3,0-12.5,0-18.8h0c0,6.3,0,12.5,0,18.8h0ZM58.6,616.8c-3.3.3-6.6.5-9.9.8,3.3-.2,6.6-.5,9.9-.8ZM233.5,506.5c-.3,0-.6,0-.9.1.3,0,.6,0,.9-.1.5,0,1,0,1.5.1-.5-.1-1-.1-1.5-.1ZM210.9,501.2c.6.3.9.8,1,1.6,2.1,0,4.1.6,6.1,1.2s3.9,1.3,6,1.6c.1-.2.2-.6.4-.8-.1.3-.2.6-.4.8-2.1-.3-4-1-6-1.6-2-.6-4-1.2-6.1-1.2,0-.8-.4-1.2-1-1.6ZM232.4,506.6c-.6.1-1.3.4-1.9.9h0c.6-.5,1.2-.7,1.9-.9ZM254.7,526.1c-1.6-2-3.2-3.9-5.1-5.6,1.8,1.7,3.5,3.6,5.1,5.6h0ZM327.2,358.8c3.7,1.5,7.5,3.1,11.2,4.6,5.2,2.8,10.5,5.6,15.8,8.4h0c-5.2-2.8-10.5-5.6-15.8-8.4-3.7-1.5-7.5-3.1-11.2-4.6ZM377.2,426.3c.9-.4,1.8-.6,2.9-.5,0,6.3-.6,12.6-1.6,18.8,1-6.2,1.7-12.5,1.6-18.8-1.1-.1-2,.1-2.9.5ZM375.9,427c.4-.3.8-.5,1.2-.7-.4.2-.8.4-1.2.7ZM379.9,421.2c0,.4.2.9.2,1.3,0-.4-.1-.9-.2-1.3-.4-1.9-.9-3.8-.6-5.8h0c-.3,2,.3,3.9.6,5.8ZM335,409.7c.6-1.3,1.6-2.1,2.8-2.8-1.2.7-2.2,1.5-2.8,2.8ZM338.2,406.6c.3-.2.6-.3.9-.5-.3.2-.6.3-.9.5ZM356.1,374.2c.7.7,1.5,1.3,2.4,2-.8-.6-1.6-1.3-2.4-2ZM363.6,380.8c1.2,1.4,2.4,2.8,2.6,4.8,2.8,1.5,4,4,5.2,6.6-1.1-2.6-2.4-5.1-5.2-6.6-.2-2-1.5-3.4-2.6-4.8h0ZM334.6,410.7h0c-1.4-1.2-2.8-2.4-4.1-3.7,1.3,1.2,2.7,2.5,4.1,3.7ZM385.1,413.9c.4-.3.9-.5,1.3-.8-.4.3-.8.6-1.3.8ZM201.7,392.9c0-.7.1-1.3.4-1.9-.3.5-.4,1.1-.4,1.9ZM250.1,354.1c-.6-.7-1.3-.8-2.1-.9.8,0,1.5.2,2.1.9,15.5.4,31-.8,46.4.9,0-1.1,0-2.2.7-3.1-.7.9-.6,2-.7,3.1-15.5-1.7-31-.5-46.4-.9h0ZM299.4,394.1h0,0ZM302.5,393.2h0c-.5.3-.9.5-1.4.8.5-.3.9-.5,1.4-.8ZM74.5,466.6c-4.4-1-8.7-2.1-13-3.3,4.3,1.2,8.7,2.2,13,3.3ZM42.7,598.5c2.7-17,9.9-30.9,21.8-41.6-11.8,10.7-19,24.7-21.8,41.6-.2.5-.3,1-.5,1.5.1-.5.3-1,.5-1.5-.3,0-.7,0-1,0,.3,0,.7,0,1,0h0ZM118.2,581.9c.7,0,1.4-.2,2.2-.3-.7.1-1.4.2-2.2.3ZM308.7,612.5h0c4.3,7.5,8.6,14.9,12.9,22.4-4.3-7.5-8.6-14.9-12.9-22.4ZM307.9,508.2c4.8,1.3,9.6,2.7,14.6,3-.5,3.7-1.2,7.4-2.1,11,.9-3.6,1.5-7.3,2.1-11-5-.3-9.8-1.6-14.5-3h0ZM318.9,527.2c-.1.4-.1.7.1.9-.2-.2-.2-.5-.1-.9Z"/>
</svg>