<?xml version="1.0" encoding="UTF-8"?>
<svg xmlns="http://www.w3.org/2000/svg" version="1.1" viewBox="0 0 1533.5 1361">
  <defs>
    <style>
      .cls-1 {
        fill: #b4a190;
      }
    </style>
  </defs>
  <!-- Generator: Adobe Illustrator 28.6.0, SVG Export Plug-In . SVG Version: 1.2.0 Build 709)  -->
  <g>
    <g id="Layer_1">
      <path class="cls-1" d="M298.5,693.4c7.5-12,14.6-23.4,21.7-34.8,19.7-31.5,39.2-63,59-94.5,1-1.6,3.5-3,5.4-3.1,7.3-.3,14.6-.1,22.4-.1v239.8h-23.7v-195.1c-.4-.2-.9-.3-1.3-.5-27.7,44.5-55.5,89-83.6,134.1-28.2-45.2-56-89.7-83.8-134.3-.3,0-.6.1-.9.2v195.8h-24.1v-239.9c8.3,0,16.3-.2,24.2.2,1.4,0,3.2,2.1,4.1,3.6,17.4,27.8,34.8,55.6,52.1,83.5,8.3,13.3,16.5,26.6,24.8,39.8,1,1.6,2.1,3.2,3.6,5.4h0Z"/>
      <path class="cls-1" d="M1149.2,806.6c-69-.6-125-57.2-124.1-125.2.9-69.4,56.8-124.1,126-123.7,67.7.4,124.4,57.2,123,127.6-1.3,66.4-57.8,121.8-125,121.3h0ZM1049.4,681.6c-.2,55.6,44.3,100.5,99.9,101,54.9.5,100.4-45,100.6-100.4.2-54.4-44.6-100-98.6-100.3-56.7-.3-101.8,43.8-102,99.7h0Z"/>
      <path class="cls-1" d="M812.7,800.9h-23.8v-239.7h23.7v143.7c1.8-1.5,2.8-2.2,3.7-3.1,45.1-45.1,90.3-90.2,135.3-135.4,3.9-3.9,7.7-6,13.4-5.7,8.3.5,16.6.1,25.1.1-35.4,35.3-70.5,70.3-105.9,105.6,35.9,45.2,71,89.4,107,134.6-4.8,0-8.8-.6-12.5,0-13.6,2.5-21.9-3.5-30.1-14.3-25.2-33.3-51.7-65.7-77.7-98.4-.9-1.2-2-2.2-3.3-3.8-2.3,2.2-4.6,4.3-6.8,6.5-15.1,15.1-30.2,30.1-45.1,45.3-1.6,1.7-2.8,4.5-2.8,6.9-.2,17-.1,34,0,51v6.3h0Z"/>
      <path class="cls-1" d="M719.7,801.2c-8.7,0-16.5.2-24.2-.2-1.3,0-3-1.9-3.6-3.3-20-43.9-39.8-87.9-59.7-131.9-10.7-23.7-21.4-47.3-32.1-71-.5-1.2-1.2-2.3-2.2-4.2-4.6,10-8.8,19.3-13,28.7-26.9,59.4-53.8,118.8-80.7,178.2-.6,1.4-2.2,3.3-3.4,3.4-7.8.3-15.6.2-24.3.2,3.2-7.2,6.2-13.9,9.1-20.5,23.6-52.3,47.3-104.6,70.9-156.9,8.9-19.7,17.9-39.4,26.6-59.2,1.3-3,3-3.8,6-3.7,6,.2,12,.2,18,0,3.1-.1,4.7.8,6,3.8,26.1,58.1,52.4,116.2,78.6,174.3,8.8,19.4,17.5,38.8,26.3,58.2.5,1,.9,2.1,1.7,4h0Z"/>
      <path class="cls-1" d="M878.8,911.2c4.9-3.2,7.8-6.8,11-10.1,9.1-9.3,18.3-18.4,27.5-27.6,1.6-1.7,3.3-2.5,5.7-2.5,10,0,20,0,31.3,0-14.2,14.2-27.5,27.7-41.9,42.1h590.5c8.3,0,6.9-.3,6.9,7,0,68.5,0,137,.1,205.5,0,4.8-1.2,6.2-6.1,6.2-21.3-.3-42.7,0-64-.2-4.3,0-6.2,1-5.3,5.7.5,2.9.2,6,.2,9v208c0,4.3-2.2,6.5-6.6,6.5-69,0-138,0-207,.1-4.3,0-5.2-1.4-5.2-5.4.1-71.7.1-143.3,0-214.9,0-10.3,1.5-8.8-9.1-8.8-154.3,0-308.6,0-462.9,0-3.9,0-6.9,1-10,3.4-34.5,26-72.4,46-113,60.8-25.5,9.3-51.7,16.4-78.3,21.5-20.7,4-41.7,6.7-62.8,7.9-14.3.8-28.6,2-42.9,1.6-31.1-.9-62.1-3-92.8-8.4-45.7-8.1-89.4-22.1-130.6-43.4-44.5-23-83.5-53.3-117.1-90.5-23.1-25.6-42.2-53.9-57.7-84.7-14.1-28.2-25-57.6-32-88.4-2.6-11.5-4.7-23.1-6.6-34.8-.7-4,.2-5.9,4.8-5.5,4.8.4,9.7.4,14.5,0,3.7-.3,4.9,1.3,5.4,4.6,3,19.9,7.4,39.5,13.6,58.7,12.7,39.5,31.3,75.9,56.2,109.1,32.1,42.7,71.7,77.1,118.3,103.3,36.4,20.5,75.1,34.7,115.8,43.6,27.4,6,55,9.4,82.9,11,22.8,1.3,45.6,1.3,68.4-.4,52.6-4,103.5-15.3,152.3-35.8,31.3-13.1,60.8-29.5,87.7-50.2,27.5-21.1,51.4-45.7,72-73.6,18.8-25.6,34.2-53.1,46-82.6,10.5-26.2,17.8-53.3,21.8-81.2.7-4.7,1.8-7.3,7.3-6.6,4.6.6,9.3.3,14,0,3.1-.1,4.1,1,3.8,4.1-1.2,10.8-3.4,21.3-5.6,31.9-.2,1.1-.3,2.2-.5,4.3h0ZM766.8,1107.1h12.6c233.3,0,466.6,0,699.8.1,5,0,6.1-1.6,6-6.3-.2-19.7,0-39.3,0-59,0-5.1-2.6-7.7-7.8-7.8-.7,0-1.3,0-2,0h-638.4c-1.7,0-3.3,0-5,0-3.7,0-6.4,1.2-8.6,4.6-10.4,15.9-22,30.8-34.6,45.1-6.8,7.7-14.4,14.6-22,23.2h0ZM1163.4,1010.2h314.9c4.6,0,6.9-2.4,6.9-7.1,0-19.3,0-38.7,0-58,0-4.8-2.4-7.3-7.3-7.3-132.8,0-265.6,0-398.4,0s-135.3,0-202.9,0c-4.1,0-5.7,1.2-6.9,5.1-3.9,12.9-8.8,25.5-14.4,37.8-3.8,8.5-7.4,17.1-12.2,25.1-2.1,3.6-1,4.8,2.8,4.5.7,0,1.3,0,2,0h315.4ZM1313,1233.9h0c0-32.3,0-64.6,0-96.9,0-4.3-.8-6-5.7-5.9-20.3.3-40.6.3-60.9,0-5.3,0-6.4,1.9-6.3,6.6.1,64.6.1,129.2,0,193.8,0,4.2,1.2,5.4,5.4,5.4,20.5-.2,41-.2,61.4,0,4.8,0,6.2-1.3,6.2-6.2-.2-32.3,0-64.6,0-96.9h0ZM1337,1234h0c0,32.3,0,64.6,0,97,0,4.5,1.1,6.1,5.8,6,20.5-.2,41-.2,61.5,0,4.9,0,5.8-1.7,5.7-6.1-.1-38.8,0-77.6,0-116.4s0-52,0-78c0-4.2-1.3-5.4-5.4-5.4-20.2.2-40.3,0-60.5,0-7.1,0-7.1,0-7.1,6.8v96h0Z"/>
      <path class="cls-1" d="M705.4,489.8c-3.1,0-6.2-.2-9.3,0-22.9,1.8-44.2-2.3-65.5-12.1-32.2-14.7-66.8-22-102.2-25-38.9-3.3-77.9-1-116.9-1.8-3.4,0-3.8,1.6-3.8,4.3,0,10,0,20,.1,30,0,3.4-1,4.8-4.6,4.7-5.2-.2-10.3-.2-15.5,0-3.9.2-4.8-1.4-4.7-5,.1-22.2,0-44.3,0-66.5,0-32.7,0-65.3,0-98,0-4.4-1.2-5.6-5.6-5.6-20.3.2-40.7.2-61,0-4.5,0-5.9,1-5.9,5.8.2,54.3,0,108.7.2,163,0,5.2-1.5,6.7-6.5,6.3-4.5-.4-9-.3-13.5,0-3.8.2-4.9-1.3-4.8-5,.2-10.2,0-20.3,0-30.5,0-44.5,0-89,.1-133.5,0-4.8-1.3-6.2-6.1-6.1-20.3.3-40.7.3-61,0-4.6,0-5.5,1.4-5.5,5.7.1,54.3,0,108.7.2,163,0,5.1-1.3,6.9-6.4,6.4-4.8-.4-9.7-.2-14.5,0-2.7,0-4-1-3.9-3.8.1-2.5,0-5,0-7.5,0-52.8,0-105.7,0-158.5,0-4.4-1.5-5.2-5.4-5.2-20.5.2-41,.2-61.5,0-4.5,0-5.5,1.3-5.5,5.6.1,54.3,0,108.7.2,163,0,5.1-1.3,7-6.4,6.4-4-.4-8-.4-12,0-5,.5-6.5-1.1-6.5-6.3.2-44.2.1-88.3.1-132.5s0-32.3,0-48.5c0-3.2.8-5.7,3.1-8,15.1-15,30.1-30.1,45.2-45.2,19.8-19.8,39.5-39.5,59.3-59.2,20.6-20.6,41.2-41.1,61.8-61.7,22.1-22.1,44.2-44.2,66.3-66.4,20-20,40-40,59.9-60,2.2-2.2,4.7-2.1,7.3-2.1h443.9c6.5,0,6.4,0,6.4,6.5,0,100.8,0,201.6,0,302.5,0,4.8-1.1,6.1-6,6.1-141.8-.1-283.6,0-425.4,0-6.4,0-6.4,0-6.4,6.6,0,32.8.1,65.7,0,98.5,0,4.9,1,6.5,6.3,6.5,29.2-.3,58.3-.5,87.5,0,38.1.6,75.4,6.9,111.8,18.5,30.5,9.7,59.2,23,86.5,39.6,2,1.2,4,2.6,6,3.9-.1.4-.2.8-.3,1.3h0ZM135.7,288.6l.9,1.5c1.6,0,3.2.2,4.9.2,222.8,0,445.6,0,668.3,0,1.7,0,3.4-.3,5,0,5.3,1.2,6.2-1.3,6.2-5.9-.2-20.2-.2-40.3,0-60.5,0-4.9-1.4-6.1-6.1-6.1-201,.1-401.9,0-602.9,0-3.4,0-5.9.9-8.3,3.4-16.4,16.6-32.9,33-49.4,49.5-6.1,6.1-12.4,12-18.6,17.9h0ZM232.4,192c.2.4.3.9.5,1.3h541.6c14,0,28,0,42,0,2.9,0,4.6-.4,4.5-4-.2-21.5-.1-43,0-64.5,0-3.1-1.1-4-4.1-3.9-7.8.2-15.7,0-23.5,0-161.5,0-322.9,0-484.3-.1-4,0-6.8,1.2-9.5,4-12.6,12.9-25.4,25.5-38.1,38.2-9.7,9.6-19.3,19.2-29,28.8h0ZM328.8,94.9c.3.5.7,1,1,1.5,3.8.2,7.6.5,11.4.5,158.4,0,316.9-.2,475.3-.1,4,0,4.4-1.4,4.4-4.5,0-21.2-.1-42.3,0-63.5,0-3.7-1.1-4.7-4.8-4.7-137.3.1-274.6,0-411.8,0-3.5,0-5.9,1.1-8.2,3.6-17.2,17.6-34.5,35.1-51.8,52.6-5,5-10.3,9.8-15.5,14.6Z"/>
      <path class="cls-1" d="M1302.9,488.8c4.5-4.8,8.8-9.6,13.3-14.1,18-18,36.2-35.8,54.2-53.8,22.3-22.2,44.5-44.5,66.8-66.7,11.7-11.7,23.3-23.3,34.9-35,1-1,3-1.8,2.2-3.5-.7-1.5-2.7-.8-4.1-.8-30.8,0-61.7,0-92.5,0-2.6,0-4.8.5-6.7,2.5-29.5,29.8-59.1,59.5-88.8,89.2-21.9,21.9-43.9,43.6-65.9,65.5-3.7,3.6-7.4,7.2-10.8,11.1-4.3,5-9.2,7.4-16.1,6.8-7.7-.7-15.5-.2-23.3-.2-.2-.5-.4-.9-.6-1.3,57.4-57.4,114.8-114.8,172.6-172.6-2.5-1.3-4.3-.9-6.1-.9-30.5,0-61,0-91.5,0-3.1,0-5.2,1-7.4,3.2-53.3,53.4-106.7,106.7-160.1,160.1-1.2,1.2-2.3,2.4-3.3,3.7-5.2,6.3-11.7,9.2-20.1,8.2-5.4-.7-11,0-16.5-.2-1.4,0-3.4.8-4.1-.9-.7-1.6,1.2-2.5,2.2-3.5,14.5-14.5,28.9-29,43.4-43.5,33.6-33.6,67.2-67.1,100.7-100.7,15.8-15.8,31.6-31.5,47.3-47.4,2.4-2.5,4.9-3.5,8.3-3.5,99.1,0,198.3,0,297.4.2,1.6,0,3.8-.9,4.6.8.8,1.8-1.5,2.7-2.6,3.8-22.9,22.9-45.8,45.8-68.8,68.7-28.5,28.4-57,56.8-85.4,85.2-12.3,12.3-24.6,24.7-36.9,37.2-2.4,2.5-5,4-8.7,3.8-8-.3-16,0-24-.1-1.3,0-2.7.3-4.1-1h0Z"/>
      <path class="cls-1" d="M442.3,1130.7c-45.7-.3-90.6-5.7-134.1-20.1-31.6-10.4-61.2-24.9-88.4-44.4-17-12.2-32.6-25.8-46.9-41-27.7-29.5-48.1-63.5-62.1-101.4-5.8-15.7-9.5-31.8-13.2-48-.8-3.5-.2-4.9,3.7-4.8,5.1.2,10.3.3,15.5,0,3.7-.2,5.2.9,5.9,4.7,4.5,23.9,12.4,46.6,23.2,68.3,12.6,25.3,28.8,48.1,48.5,68.5,28.2,29.2,61.3,51,98.6,66.5,24.5,10.2,50,16.9,76.2,21.4,31.2,5.4,62.6,6.9,94,5.4,57.9-2.9,113.2-16.1,164.2-44.6,45.1-25.2,80.3-60.4,105.5-105.5,14-25,24-51.5,29.4-79.7.7-3.7,2.1-5.3,6.2-5,5.1.4,10.3.2,15.5,0,3.4-.1,4.3,1,3.6,4.4-6.5,33.6-17.9,65.3-34.9,95.1-22.4,39.1-52.2,71.4-89.1,96.9-30.1,20.8-63.1,35.5-98.2,45.8-34.2,10-69,15.7-104.6,16.9-3.2.1-6.3.5-9.5.6-3,0-6,0-9,0h0Z"/>
      <path class="cls-1" d="M441.6,1034.8c-41.4-.4-81.9-5.9-120.5-21.8-25.4-10.5-48.5-24.8-68.5-43.9-27.1-25.7-45.6-56.5-55.6-92.4-1.6-5.6-1.4-5.7,4.5-5.6,6.1,0,13.4-1.8,18.1.8,4.5,2.6,4.5,10.6,6.7,16.1,17.1,42.1,46.3,73.2,86.4,94.2,28.7,15,59.4,22.7,91.5,26.2,18.5,2,36.9,2.6,55.3,1.5,47.7-2.8,93-13.8,133.6-40.3,23.2-15.2,41.2-35.4,55-59.5,6.2-10.9,11.3-22.3,14.8-34.3,1-3.3,2.5-5,6.3-4.8,5.1.3,10.3.3,15.5,0,4.2-.2,4.6,1.5,3.7,5.1-4.8,17.8-12,34.5-21.4,50.3-10,16.8-22.4,31.7-36.8,45-16.9,15.7-36.2,27.6-57.2,36.9-31.6,14-64.7,22.1-99.1,24.9-10.8.9-21.5,1.8-32.4,1.7h0Z"/>
      <path class="cls-1" d="M441.4,938.8c-28.7-.6-57-3.6-84-14.7-24.2-10-44.1-25.2-57.5-48.1-.7-1.2-2.1-2.6-1.5-4.1.8-1.8,2.6-.9,4-.9,6.7,0,13.3,0,20,0,2,0,3.7.2,5.2,2.1,14.3,18.1,33.8,28,55.6,34.1,25.2,7,50.9,8.4,76.7,6.5,26.7-1.9,52.6-7.7,76.1-21.5,8.2-4.8,15.1-10.9,21-18.2,1.8-2.2,3.5-3.1,6.3-3,6.7.2,13.3.2,20,0,4,0,4.2,1.2,2.4,4.3-10,17.2-23.7,30.9-41.3,40.2-26.6,14.1-55.2,20.8-85.1,22.5-6,.3-11.9.9-18,.8h0Z"/>
    </g>
  </g>
</svg>